<?xml version="1.0" encoding="iso-8859-1"?>
<!-- Generator: Adobe Illustrator 19.1.0, SVG Export Plug-In . SVG Version: 6.00 Build 0)  -->
<svg version="1.1" id="Capa_1" xmlns="http://www.w3.org/2000/svg" xmlns:xlink="http://www.w3.org/1999/xlink" x="0px" y="0px"
	 viewBox="0 0 411.18 411.18" style="enable-background:new 0 0 411.18 411.18;" xml:space="preserve">
<g>
	<path style="fill:#669933;" d="M210.59,151.491v62.43h10.502c0.127-12.048,1.292-43.611,9.322-77.195
		c-1.315,0.029-2.645-0.033-3.981-0.221C223.745,144.011,217.766,149.664,210.59,151.491z"/>
	<path style="fill:#669933;" d="M184.748,136.504c-1.335,0.187-2.664,0.25-3.977,0.221c8.032,33.59,9.19,65.148,9.317,77.195h10.502
		V151.49C193.415,149.664,187.436,144.01,184.748,136.504z"/>
	<path style="fill:#669933;" d="M169.373,96.862c-0.898-1.774-1.574-3.597-2.04-5.43c-0.734,0.129-1.478,0.213-2.225,0.273
		c1.015,2.064,1.997,4.182,2.953,6.353C168.483,97.657,168.917,97.257,169.373,96.862z"/>
	<path style="fill:#669933;" d="M133.62,165.414c-3.607,8.414-11.444,14.172-20.266,14.172c-2.17,0-4.277-0.361-6.28-1.012
		c16.192,8.661,28.804,20.544,37.347,35.346h15.408C159.557,203.858,156.409,179.692,133.62,165.414z"/>
	<path style="fill:#CCFF66;" d="M169.811,213.92h10.26c-0.167-12.326-1.488-46.15-10.381-80.258c-2.638-1.547-4.935-3.65-6.698-6.26
		c-3.658-5.417-4.817-12.599-1.775-19.783c-1.417-3.546-2.893-6.928-4.447-10.166c-1.752,2.521-3.929,4.677-6.431,6.304
		c2.917,6.066,2.716,13.69-0.77,20.571c11.74,10.158,11.905,22.359,6.383,30.537c-2.351,3.479-5.652,6.061-9.447,7.619
		c9.516,8.1,16.391,18.767,20.153,31.527C169.033,202.068,169.685,209.268,169.811,213.92z"/>
	<path style="fill:#669933;" d="M304.114,178.573c-2.005,0.652-4.115,1.014-6.288,1.014c-8.837,0-16.685-5.777-20.284-14.217
		c-22.813,14.274-25.941,38.475-26.198,48.551h15.408C275.296,199.114,287.917,187.235,304.114,178.573z"/>
	<path style="fill:#CCFF66;" d="M231.107,213.92h10.264c0.125-4.652,0.773-11.844,3.151-19.908
		c3.761-12.758,10.624-23.433,20.133-31.534c-3.787-1.559-7.081-4.138-9.427-7.61c-5.523-8.18-5.358-20.381,6.382-30.539
		c-3.488-6.884-3.688-14.511-0.767-20.578c-2.501-1.629-4.679-3.783-6.434-6.301c-1.558,3.249-3.045,6.64-4.454,10.155
		c3.05,7.188,1.894,14.376-1.767,19.796c-1.763,2.609-4.062,4.714-6.701,6.261C232.582,167.812,231.27,201.606,231.107,213.92z"/>
	<path style="fill:#669933;" d="M243.847,91.432c-0.466,1.834-1.142,3.657-2.04,5.43c0.463,0.4,0.901,0.805,1.328,1.212
		c0.959-2.177,1.951-4.295,2.968-6.366C245.345,91.647,244.59,91.564,243.847,91.432z"/>
	<path style="fill:#FFCC66;" d="M178.833,102.178c-8.755,6.041-11.65,13.562-7.555,19.627c1.088,1.611,2.591,2.848,4.338,3.684
		c0.181,0.064,0.352,0.154,0.523,0.238c3.093,1.303,6.873,1.39,10.53,0.039c1.426-0.527,3.016-0.377,4.318,0.408
		c1.302,0.787,2.175,2.123,2.373,3.633c0.919,7.02,6.176,12.314,12.229,12.314c6.052,0,11.309-5.295,12.229-12.316
		c0.197-1.508,1.071-2.844,2.373-3.631c1.302-0.787,2.892-0.938,4.318-0.408c3.669,1.355,7.462,1.263,10.56-0.053
		c0.148-0.07,0.294-0.146,0.449-0.203c1.766-0.838,3.285-2.082,4.383-3.707c4.094-6.062,1.199-13.584-7.557-19.625
		c-1.121-0.773-1.877-1.971-2.096-3.314c-0.218-1.344,0.122-2.719,0.941-3.809c4.544-6.037,4.508-13.904-0.08-17.535
		c-2.479-1.961-5.03-2.75-7.811-2.404c-6.173,0.766-12.14,6.898-13.744,8.986l-0.015-0.012c-0.26,0.339-0.55,0.66-0.905,0.932
		c-2.189,1.682-5.33,1.271-7.011-0.92c-1.604-2.088-7.571-8.221-13.745-8.986c-2.781-0.348-5.331,0.441-7.809,2.404
		c-4.589,3.631-4.626,11.498-0.083,17.535c0.819,1.09,1.158,2.465,0.94,3.809C180.711,100.207,179.954,101.405,178.833,102.178z
		 M202.06,104.01c0.92-0.93,2.21-1.471,3.53-1.471c1.32,0,2.61,0.541,3.54,1.471c0.93,0.93,1.46,2.219,1.46,3.539
		c0,1.31-0.53,2.6-1.47,3.531c-0.92,0.93-2.21,1.459-3.53,1.459c-1.32,0-2.6-0.529-3.53-1.459c-0.94-0.932-1.47-2.221-1.47-3.531
		C200.59,106.229,201.12,104.94,202.06,104.01z"/>
	<path style="fill:#FFCC66;" d="M272.306,104.987c-4.589,3.629-4.624,11.496-0.08,17.535c0.819,1.088,1.158,2.463,0.94,3.807
		c-0.218,1.344-0.975,2.541-2.096,3.314c-8.755,6.043-11.65,13.562-7.556,19.627c3.072,4.545,9.4,6.176,15.391,3.961
		c1.427-0.529,3.017-0.377,4.318,0.408c1.302,0.787,2.175,2.123,2.373,3.631c0.92,7.021,6.177,12.316,12.229,12.316
		c6.053,0,11.31-5.295,12.229-12.314c0.197-1.51,1.07-2.846,2.373-3.633c1.301-0.787,2.89-0.938,4.318-0.408
		c5.992,2.215,12.321,0.584,15.393-3.963c4.094-6.062,1.199-13.582-7.556-19.625c-1.121-0.773-1.878-1.971-2.096-3.314
		c-0.218-1.344,0.122-2.719,0.94-3.807c4.544-6.039,4.507-13.906-0.082-17.535c-2.479-1.963-5.035-2.748-7.81-2.404
		c-6.174,0.766-12.141,6.896-13.745,8.984c-1.682,2.189-4.821,2.602-7.011,0.92c-0.355-0.271-0.645-0.593-0.905-0.932l-0.015,0.012
		c-1.603-2.088-7.57-8.219-13.743-8.984C277.339,102.241,274.786,103.024,272.306,104.987z M294.29,131.469
		c0.93-0.93,2.22-1.459,3.54-1.459c1.31,0,2.6,0.529,3.53,1.459c0.93,0.939,1.47,2.221,1.47,3.541c0,1.309-0.54,2.6-1.47,3.529
		c-0.93,0.939-2.22,1.471-3.53,1.471c-1.32,0-2.61-0.531-3.54-1.471c-0.93-0.93-1.47-2.209-1.47-3.529
		S293.36,132.408,294.29,131.469z"/>
	<path style="fill:#FF6666;" d="M244.206,81.267c2.827,0.819,6.017,0.687,9.076-0.444c1.425-0.527,3.016-0.377,4.318,0.408
		c1.302,0.787,2.175,2.123,2.373,3.631c0.665,5.079,3.607,9.334,7.574,11.238c4.212-2.845,8.947-4.038,13.8-3.441
		c0.028,0.003,0.055,0.009,0.083,0.012c1.51-2.209,2.646-5.098,3.001-7.809c0.197-1.508,1.071-2.844,2.373-3.631
		c1.302-0.785,2.891-0.938,4.318-0.408c5.99,2.215,12.32,0.586,15.393-3.963c4.095-6.062,1.2-13.584-7.556-19.625
		c-1.121-0.773-1.877-1.971-2.096-3.314c-0.218-1.344,0.122-2.719,0.94-3.809c4.544-6.037,4.507-13.904-0.082-17.535
		c-2.479-1.961-5.033-2.744-7.81-2.404c-6.174,0.766-12.141,6.898-13.745,8.986c-1.682,2.188-4.821,2.6-7.011,0.92
		c-0.355-0.273-8.49-9.141-14.663-9.906c-2.779-0.342-5.332,0.443-7.812,2.404c-4.589,3.631-4.624,11.496-0.08,17.535
		c0.819,1.09,1.158,2.465,0.94,3.809c-0.218,1.344-0.975,2.541-2.096,3.314c-5.178,3.572-8.352,7.641-9.188,11.68
		c0.354,0.25,0.712,0.489,1.058,0.764C241.037,72.621,243.336,76.727,244.206,81.267z M268.67,59.059
		c0.93-0.93,2.21-1.459,3.53-1.459c1.32,0,2.61,0.529,3.54,1.459c0.93,0.93,1.46,2.221,1.46,3.541c0,1.32-0.53,2.6-1.46,3.539
		c-0.93,0.93-2.22,1.461-3.54,1.461c-1.32,0-2.6-0.531-3.53-1.461c-0.93-0.939-1.47-2.219-1.47-3.539
		C267.2,61.28,267.74,59.989,268.67,59.059z"/>
	<path style="fill:#CC9933;" d="M89.227,351.073c18.488,20.932,37.225,28.629,40.954,30.012h150.82
		c3.729-1.383,22.465-9.08,40.953-30.012c15.23-17.242,32.792-46.591,39.199-93.609H50.027
		C56.434,304.482,73.997,333.83,89.227,351.073z"/>
	<path style="fill:#FFCC66;" d="M360.008,223.922c-0.008,0-0.016-0.002-0.024-0.002H47.556c0.129,8.27,0.58,16.108,1.301,23.543
		h313.467c0.721-7.434,1.172-15.273,1.301-23.543h-3.59C360.025,223.92,360.017,223.922,360.008,223.922z"/>
	<path style="fill:#CCFF66;" d="M351.126,174.008c-33.743,5.164-58.108,18.578-72.58,39.912h80.64
		c4.684-1.663,36.746-12.745,39.926-41.328C390.196,171.805,371.628,170.873,351.126,174.008z"/>
	<path style="fill:#669933;" d="M335.412,125.577c10.369,9.897,10.312,21.444,5.015,29.288c-4.683,6.932-13.134,10.303-21.757,9.105
		c-1.757,4.906-4.929,9.01-8.914,11.783c11.745-5.477,25.166-9.403,40.116-11.67c5.006-0.759,9.874-1.287,14.525-1.645
		c4.726-1.797,35.059-14.588,36.714-47.238C390.631,112.953,359.567,108.338,335.412,125.577z"/>
	<path style="fill:#FFCC66;" d="M94.434,153.231c1.428-0.529,3.017-0.377,4.318,0.408c1.303,0.787,2.176,2.123,2.373,3.633
		c0.919,7.02,6.176,12.314,12.229,12.314c6.052,0,11.309-5.295,12.229-12.316c0.197-1.508,1.071-2.844,2.373-3.631
		c1.302-0.787,2.891-0.938,4.318-0.408c5.99,2.213,12.319,0.586,15.392-3.963c4.094-6.062,1.199-13.582-7.557-19.625
		c-1.121-0.773-1.877-1.971-2.096-3.314c-0.218-1.344,0.122-2.719,0.941-3.807c4.544-6.039,4.509-13.906-0.08-17.535
		c-2.48-1.961-5.032-2.746-7.812-2.404c-6.173,0.766-12.14,6.896-13.743,8.984c-1.682,2.189-4.822,2.602-7.011,0.92
		c-0.354-0.271-0.645-0.593-0.905-0.932l-0.015,0.012c-1.604-2.088-7.57-8.219-13.745-8.984c-2.775-0.346-5.331,0.441-7.81,2.402
		c-4.59,3.631-4.627,11.498-0.083,17.537c0.819,1.088,1.158,2.463,0.94,3.807c-0.218,1.344-0.975,2.541-2.096,3.314
		c-8.755,6.043-11.65,13.562-7.555,19.627C82.113,153.815,88.442,155.446,94.434,153.231z M109.82,131.469
		c0.93-0.93,2.22-1.459,3.53-1.459c1.32,0,2.61,0.529,3.54,1.459c0.93,0.93,1.46,2.221,1.46,3.541s-0.53,2.609-1.46,3.529
		c-0.93,0.939-2.22,1.471-3.54,1.471c-1.31,0-2.6-0.531-3.53-1.471c-0.93-0.93-1.47-2.221-1.47-3.529
		C108.35,133.69,108.89,132.408,109.82,131.469z"/>
	<path style="fill:#CCFF66;" d="M132.621,213.92c-31.012-45.453-100.408-43.068-120.551-41.322
		c11.193,28.273,32.563,39.779,39.929,41.322H132.621z"/>
	<path style="fill:#FF6666;" d="M124.375,81.231c1.302,0.787,2.176,2.123,2.373,3.631c0.355,2.711,1.491,5.599,3.001,7.809
		c0.028-0.004,0.055-0.009,0.083-0.012c4.853-0.604,9.587,0.594,13.8,3.441c3.967-1.904,6.908-6.159,7.574-11.238
		c0.198-1.508,1.071-2.844,2.373-3.631c1.302-0.787,2.892-0.938,4.318-0.408c3.061,1.131,6.251,1.264,9.077,0.444
		c0.871-4.54,3.17-8.646,6.891-11.589c0.345-0.273,0.702-0.512,1.056-0.762c-0.836-4.039-4.01-8.109-9.188-11.682
		c-1.121-0.773-1.878-1.971-2.096-3.314c-0.218-1.344,0.122-2.719,0.94-3.809c4.544-6.039,4.509-13.904-0.08-17.535
		c-2.479-1.961-5.033-2.744-7.812-2.404c-6.173,0.766-12.14,6.898-13.743,8.986c-1.682,2.188-4.821,2.6-7.011,0.92
		c-0.354-0.273-8.49-9.141-14.665-9.906c-2.774-0.342-5.331,0.443-7.811,2.404c-4.589,3.631-4.626,11.498-0.082,17.535
		c0.819,1.09,1.158,2.463,0.94,3.809c-0.218,1.344-0.975,2.541-2.096,3.314c-8.755,6.041-11.65,13.562-7.555,19.627
		c3.073,4.547,9.401,6.176,15.393,3.961C121.484,80.295,123.074,80.446,124.375,81.231z M135.44,59.059
		c0.93-0.93,2.22-1.459,3.54-1.459c1.31,0,2.6,0.529,3.53,1.459c0.93,0.93,1.47,2.221,1.47,3.541c0,1.32-0.54,2.6-1.47,3.539
		c-0.93,0.93-2.22,1.461-3.53,1.461c-1.32,0-2.61-0.531-3.54-1.461c-0.93-0.939-1.46-2.231-1.46-3.539
		C133.98,61.28,134.51,60,135.44,59.059z"/>
	<path style="fill:#669933;" d="M61.309,164.084c14.943,2.266,28.362,6.188,40.104,11.661c-3.979-2.773-7.146-6.874-8.902-11.776
		c-8.628,1.205-17.075-2.174-21.756-9.102c-5.297-7.842-5.356-19.383,5-29.277c-24.212-17.297-55.218-12.661-65.686-10.397
		c1.648,32.657,31.985,45.448,36.715,47.246C51.435,162.798,56.304,163.326,61.309,164.084z"/>
	<path style="fill:#663333;" d="M205.59,112.539c1.32,0,2.61-0.529,3.53-1.459c0.94-0.932,1.47-2.221,1.47-3.531
		c0-1.32-0.53-2.609-1.46-3.539c-0.93-0.93-2.22-1.471-3.54-1.471c-1.32,0-2.61,0.541-3.53,1.471c-0.94,0.93-1.47,2.219-1.47,3.539
		c0,1.31,0.53,2.6,1.47,3.531C202.99,112.01,204.27,112.539,205.59,112.539z"/>
	<path style="fill:#663333;" d="M297.83,140.01c1.31,0,2.6-0.531,3.53-1.471c0.93-0.93,1.47-2.221,1.47-3.529
		c0-1.32-0.54-2.602-1.47-3.541c-0.93-0.93-2.22-1.459-3.53-1.459c-1.32,0-2.61,0.529-3.54,1.459c-0.93,0.939-1.47,2.221-1.47,3.541
		s0.54,2.6,1.47,3.529C295.22,139.479,296.51,140.01,297.83,140.01z"/>
	<path style="fill:#663333;" d="M272.2,67.6c1.32,0,2.61-0.531,3.54-1.461c0.93-0.939,1.46-2.219,1.46-3.539
		c0-1.32-0.53-2.611-1.46-3.541c-0.93-0.93-2.22-1.459-3.54-1.459c-1.32,0-2.6,0.529-3.53,1.459c-0.93,0.93-1.47,2.221-1.47,3.541
		c0,1.32,0.54,2.6,1.47,3.539C269.6,67.069,270.88,67.6,272.2,67.6z"/>
	<path style="fill:#663333;" d="M113.35,140.01c1.32,0,2.61-0.531,3.54-1.471c0.93-0.92,1.46-2.209,1.46-3.529
		s-0.53-2.611-1.46-3.541c-0.93-0.93-2.22-1.459-3.54-1.459c-1.31,0-2.6,0.529-3.53,1.459c-0.93,0.939-1.47,2.221-1.47,3.541
		c0,1.309,0.54,2.6,1.47,3.529C110.75,139.479,112.04,140.01,113.35,140.01z"/>
	<path style="fill:#663333;" d="M138.98,67.6c1.31,0,2.6-0.531,3.53-1.461c0.93-0.939,1.47-2.219,1.47-3.539
		c0-1.32-0.54-2.611-1.47-3.541c-0.93-0.93-2.22-1.459-3.53-1.459c-1.32,0-2.61,0.529-3.54,1.459c-0.93,0.941-1.46,2.221-1.46,3.541
		c0,1.309,0.53,2.6,1.46,3.539C136.37,67.069,137.66,67.6,138.98,67.6z"/>
	<path style="fill:#663333;" d="M411.169,111.198c-0.039-2.178-1.483-4.078-3.57-4.701c-1.769-0.527-38.829-11.215-70.754,6.377
		c-0.01-6.148-2.468-11.912-7.294-15.73c-4.557-3.605-9.829-5.158-15.245-4.484c-6.984,0.865-12.845,5.176-16.48,8.566
		c-1.778-1.659-4.092-3.535-6.806-5.123c0.795-1.438,1.49-2.96,2.037-4.539c8.62,1.197,17.065-2.178,21.746-9.105
		c5.523-8.178,5.358-20.379-6.382-30.539c4.941-9.75,3.312-21.01-4.493-27.184c-4.558-3.607-9.829-5.158-15.245-4.486
		c-6.984,0.866-12.845,5.177-16.48,8.566c-3.634-3.39-9.496-7.7-16.478-8.566c-5.415-0.664-10.688,0.881-15.246,4.484
		c-7.805,6.176-9.433,17.435-4.491,27.188c-4.619,3.995-7.707,8.524-9.1,13.285c-1.584-0.194-3.192-0.217-4.817-0.014
		c-6.983,0.866-12.845,5.178-16.479,8.568c-3.635-3.391-9.497-7.703-16.48-8.568c-1.627-0.201-3.237-0.179-4.822,0.016
		c-1.393-4.761-4.475-9.291-9.095-13.287c4.941-9.752,3.314-21.012-4.491-27.188c-4.558-3.605-9.828-5.15-15.246-4.484
		c-6.983,0.866-12.844,5.177-16.479,8.566c-3.635-3.39-9.496-7.7-16.48-8.566c-5.412-0.664-10.688,0.881-15.245,4.484
		c-7.806,6.176-9.434,17.435-4.493,27.185c-11.74,10.16-11.905,22.361-6.381,30.541c4.681,6.926,13.124,10.301,21.745,9.104
		c0.546,1.578,1.236,3.104,2.029,4.541c-2.714,1.588-5.02,3.465-6.797,5.122c-3.634-3.39-9.496-7.702-16.481-8.567
		c-5.416-0.672-10.688,0.879-15.244,4.484c-4.826,3.817-7.284,9.58-7.295,15.729c-31.925-17.591-68.986-6.904-70.754-6.375
		c-2.087,0.623-3.531,2.523-3.57,4.701c-0.334,18.631,7.211,35.092,21.822,47.605c1.281,1.097,2.557,2.093,3.822,3.04
		c-12.058,0.236-20.026,1.372-20.611,1.458c-1.37,0.201-2.594,0.961-3.383,2.1c-0.789,1.137-1.124,2.562-0.778,3.904
		c9.368,36.285,36.635,49.36,36.635,49.615c0,73.726,24.293,116.439,44.673,139.289c22.358,25.066,44.687,32.344,45.627,32.643
		c0.488,0.154,0.997,0.232,1.509,0.232h152.529c0.512,0,1.021-0.078,1.509-0.232c0.94-0.299,23.268-7.576,45.626-32.643
		c20.379-22.85,44.672-65.562,44.672-139.289c0-0.254,36.635-13.33,36.635-49.615c0-1.385,0.01-2.768-0.778-3.904
		c-0.789-1.139-2.014-1.898-3.383-2.1c-0.585-0.087-8.545-1.222-20.59-1.459c1.257-0.942,2.529-1.949,3.801-3.039
		C403.958,146.289,411.505,129.828,411.169,111.198z M293.861,111.567l0.015-0.012c0.26,0.339,0.55,0.66,0.905,0.932
		c2.189,1.682,5.329,1.269,7.011-0.92c1.604-2.088,7.57-8.219,13.745-8.984c2.775-0.344,5.331,0.441,7.81,2.404
		c4.589,3.629,4.626,11.496,0.082,17.535c-0.819,1.088-1.158,2.463-0.94,3.807c0.218,1.344,0.975,2.541,2.096,3.314
		c8.755,6.043,11.65,13.562,7.556,19.625c-3.072,4.547-9.401,6.178-15.393,3.963c-1.429-0.529-3.017-0.379-4.318,0.408
		c-1.303,0.787-2.176,2.123-2.373,3.633c-0.919,7.02-6.176,12.314-12.229,12.314c-6.052,0-11.309-5.295-12.229-12.316
		c-0.198-1.508-1.071-2.844-2.373-3.631c-1.302-0.785-2.892-0.938-4.318-0.408c-5.991,2.215-12.319,0.584-15.391-3.961
		c-4.095-6.064-1.2-13.584,7.556-19.627c1.121-0.773,1.877-1.971,2.096-3.314c0.218-1.344-0.122-2.719-0.94-3.807
		c-4.544-6.039-4.509-13.906,0.08-17.535c2.48-1.963,5.034-2.746,7.812-2.404C286.291,103.348,292.257,109.479,293.861,111.567z
		 M248.189,127.401c3.66-5.42,4.817-12.607,1.767-19.796c1.409-3.516,2.896-6.906,4.454-10.155c1.754,2.518,3.932,4.672,6.434,6.301
		c-2.921,6.067-2.721,13.694,0.767,20.578c-11.74,10.158-11.905,22.359-6.382,30.539c2.346,3.473,5.64,6.052,9.427,7.61
		c-9.51,8.101-16.372,18.776-20.133,31.534c-2.378,8.064-3.025,15.256-3.151,19.908h-10.264
		c0.163-12.314,1.476-46.108,10.381-80.259C244.128,132.115,246.426,130.01,248.189,127.401z M241.807,96.862
		c0.898-1.773,1.574-3.596,2.04-5.43c0.744,0.132,1.498,0.215,2.256,0.275c-1.017,2.071-2.009,4.189-2.968,6.366
		C242.707,97.666,242.269,97.262,241.807,96.862z M277.542,165.369c3.598,8.439,11.447,14.217,20.284,14.217
		c2.173,0,4.282-0.361,6.288-1.014c-16.196,8.662-28.817,20.541-37.361,35.348h-15.408
		C251.601,203.844,254.729,179.644,277.542,165.369z M245.447,57.235c1.121-0.773,1.878-1.971,2.096-3.314
		c0.218-1.344-0.122-2.719-0.94-3.809c-4.544-6.039-4.509-13.904,0.08-17.535c2.48-1.961,5.033-2.746,7.812-2.404
		c6.173,0.766,14.309,9.633,14.663,9.906c2.19,1.68,5.329,1.267,7.011-0.92c1.604-2.088,7.57-8.221,13.745-8.986
		c2.778-0.34,5.331,0.443,7.81,2.404c4.589,3.631,4.626,11.498,0.082,17.535c-0.819,1.09-1.158,2.465-0.94,3.809
		c0.218,1.344,0.975,2.541,2.096,3.314c8.755,6.041,11.65,13.562,7.556,19.625c-3.073,4.549-9.403,6.178-15.393,3.963
		c-1.428-0.529-3.016-0.377-4.318,0.408c-1.302,0.787-2.176,2.123-2.373,3.631c-0.355,2.711-1.491,5.6-3.001,7.809
		c-0.028-0.003-0.055-0.009-0.083-0.012c-4.853-0.597-9.587,0.597-13.8,3.441c-3.967-1.904-6.909-6.159-7.574-11.238
		c-0.198-1.508-1.071-2.844-2.373-3.631c-1.302-0.785-2.893-0.936-4.318-0.408c-3.059,1.131-6.249,1.264-9.076,0.444
		c-0.87-4.54-3.169-8.646-6.89-11.589c-0.346-0.274-0.704-0.514-1.058-0.764C237.095,64.875,240.269,60.807,245.447,57.235z
		 M179.989,95.055c-4.544-6.037-4.507-13.904,0.083-17.535c2.479-1.963,5.029-2.752,7.809-2.404
		c6.173,0.766,12.141,6.898,13.745,8.986c1.681,2.191,4.821,2.602,7.011,0.92c0.355-0.271,0.645-0.593,0.905-0.932l0.015,0.012
		c1.604-2.088,7.571-8.221,13.744-8.986c2.781-0.346,5.333,0.443,7.811,2.404c4.588,3.631,4.624,11.498,0.08,17.535
		c-0.819,1.09-1.158,2.465-0.941,3.809c0.218,1.344,0.975,2.541,2.096,3.314c8.755,6.041,11.65,13.562,7.557,19.625
		c-1.098,1.625-2.617,2.869-4.383,3.707c-0.155,0.057-0.301,0.133-0.449,0.203c-3.098,1.316-6.891,1.408-10.56,0.053
		c-1.426-0.529-3.016-0.379-4.318,0.408c-1.302,0.787-2.176,2.123-2.373,3.631c-0.92,7.021-6.177,12.316-12.229,12.316
		c-6.053,0-11.31-5.295-12.229-12.314c-0.197-1.51-1.07-2.846-2.373-3.633c-1.302-0.785-2.892-0.936-4.318-0.408
		c-3.657,1.351-7.438,1.264-10.53-0.039c-0.172-0.084-0.342-0.174-0.523-0.238c-1.747-0.836-3.25-2.072-4.338-3.684
		c-4.095-6.064-1.201-13.586,7.555-19.627c1.121-0.773,1.877-1.971,2.096-3.314C181.147,97.52,180.808,96.145,179.989,95.055z
		 M230.414,136.725c-8.031,33.584-9.195,65.148-9.322,77.195H210.59v-62.43c7.175-1.826,13.154-7.48,15.843-14.986
		C227.769,136.692,229.1,136.754,230.414,136.725z M200.59,151.49v62.431h-10.502c-0.127-12.047-1.286-43.605-9.317-77.195
		c1.313,0.029,2.642-0.034,3.977-0.221C187.436,144.01,193.415,149.664,200.59,151.49z M146.505,162.485
		c3.795-1.559,7.096-4.14,9.447-7.619c5.522-8.178,5.357-20.379-6.383-30.537c3.487-6.881,3.688-14.505,0.77-20.571
		c2.502-1.627,4.678-3.782,6.431-6.304c1.553,3.238,3.029,6.62,4.447,10.166c-3.042,7.185-1.884,14.366,1.775,19.783
		c1.763,2.609,4.06,4.713,6.698,6.26c8.893,34.107,10.214,67.932,10.381,80.258h-10.26c-0.127-4.652-0.778-11.853-3.153-19.908
		C162.896,181.251,156.021,170.584,146.505,162.485z M159.829,213.92h-15.408c-8.543-14.802-21.155-26.685-37.347-35.346
		c2.003,0.65,4.11,1.012,6.28,1.012c8.822,0,16.66-5.758,20.266-14.172C156.409,179.692,159.557,203.858,159.829,213.92z
		 M165.108,91.705c0.747-0.061,1.491-0.145,2.225-0.273c0.466,1.833,1.142,3.656,2.04,5.43c-0.456,0.396-0.89,0.795-1.312,1.196
		C167.105,95.887,166.123,93.77,165.108,91.705z M120.057,80.823c-5.991,2.215-12.32,0.586-15.393-3.961
		c-4.095-6.065-1.2-13.586,7.555-19.627c1.121-0.773,1.877-1.971,2.096-3.314c0.218-1.346-0.122-2.719-0.94-3.809
		c-4.544-6.037-4.507-13.904,0.082-17.535c2.479-1.961,5.037-2.746,7.811-2.404c6.174,0.766,14.31,9.633,14.665,9.906
		c2.19,1.68,5.329,1.267,7.011-0.92c1.604-2.088,7.57-8.221,13.743-8.986c2.779-0.34,5.333,0.443,7.812,2.404
		c4.589,3.631,4.624,11.496,0.08,17.535c-0.819,1.09-1.158,2.465-0.94,3.809c0.218,1.344,0.975,2.541,2.096,3.314
		c5.178,3.572,8.353,7.643,9.188,11.682c-0.354,0.25-0.71,0.488-1.056,0.762c-3.721,2.943-6.02,7.049-6.891,11.589
		c-2.827,0.819-6.017,0.687-9.077-0.444c-1.427-0.529-3.016-0.379-4.318,0.408c-1.302,0.787-2.175,2.123-2.373,3.631
		c-0.665,5.079-3.607,9.334-7.574,11.238c-4.213-2.848-8.947-4.045-13.8-3.441c-0.028,0.003-0.055,0.008-0.083,0.012
		c-1.51-2.21-2.646-5.098-3.001-7.809c-0.197-1.508-1.071-2.844-2.373-3.631C123.074,80.446,121.484,80.295,120.057,80.823z
		 M86.596,129.643c1.121-0.773,1.877-1.971,2.096-3.314c0.218-1.344-0.122-2.719-0.94-3.807c-4.544-6.039-4.507-13.906,0.083-17.537
		c2.479-1.961,5.034-2.748,7.81-2.402c6.174,0.766,12.141,6.896,13.745,8.984l0.015-0.012c0.26,0.339,0.55,0.66,0.905,0.932
		c2.189,1.682,5.329,1.269,7.011-0.92c1.604-2.088,7.57-8.219,13.743-8.984c2.78-0.342,5.332,0.443,7.812,2.404
		c4.589,3.629,4.625,11.496,0.08,17.535c-0.819,1.088-1.158,2.463-0.941,3.807c0.218,1.344,0.975,2.541,2.096,3.314
		c8.755,6.043,11.65,13.562,7.557,19.625c-3.073,4.549-9.402,6.176-15.392,3.963c-1.427-0.529-3.017-0.379-4.318,0.408
		c-1.302,0.787-2.176,2.123-2.373,3.631c-0.92,7.021-6.177,12.316-12.229,12.316c-6.053,0-11.31-5.295-12.229-12.314
		c-0.197-1.51-1.07-2.846-2.373-3.633c-1.301-0.785-2.891-0.938-4.318-0.408c-5.992,2.215-12.321,0.584-15.393-3.961
		C74.946,143.205,77.841,135.686,86.596,129.643z M10.069,115.194c10.468-2.265,41.474-6.9,65.686,10.397
		c-10.356,9.894-10.297,21.435-5,29.277c4.682,6.928,13.128,10.307,21.756,9.102c1.756,4.902,4.923,9.004,8.902,11.776
		c-11.741-5.473-25.16-9.396-40.104-11.661c-5.005-0.758-9.874-1.286-14.525-1.645C42.054,160.642,11.717,147.851,10.069,115.194z
		 M12.07,172.598c20.143-1.746,89.539-4.131,120.551,41.322H51.998C44.633,212.377,23.263,200.87,12.07,172.598z M321.954,351.073
		c-18.488,20.932-37.224,28.629-40.953,30.012h-150.82c-3.73-1.383-22.466-9.08-40.954-30.012
		c-15.23-17.242-32.793-46.591-39.2-93.609h311.126C354.746,304.482,337.184,333.83,321.954,351.073z M362.324,247.463H48.857
		c-0.721-7.434-1.172-15.273-1.301-23.543h312.428c0.008,0,0.016,0.002,0.024,0.002s0.017-0.002,0.026-0.002h3.59
		C363.496,232.19,363.045,240.029,362.324,247.463z M399.112,172.592c-3.18,28.583-35.242,39.665-39.926,41.328h-80.64
		c14.472-21.334,38.837-34.748,72.58-39.912C371.628,170.873,390.196,171.805,399.112,172.592z M364.396,162.44
		c-4.651,0.357-9.52,0.886-14.525,1.645c-14.95,2.267-28.371,6.193-40.116,11.67c3.985-2.773,7.157-6.877,8.914-11.783
		c8.623,1.197,17.075-2.174,21.757-9.105c5.298-7.844,5.355-19.391-5.015-29.288c24.155-17.239,55.219-12.624,65.698-10.376
		C399.455,147.852,369.122,160.643,364.396,162.44z"/>
</g>
<g>
</g>
<g>
</g>
<g>
</g>
<g>
</g>
<g>
</g>
<g>
</g>
<g>
</g>
<g>
</g>
<g>
</g>
<g>
</g>
<g>
</g>
<g>
</g>
<g>
</g>
<g>
</g>
<g>
</g>
</svg>
