<?xml version="1.0" encoding="iso-8859-1"?>
<!-- Generator: Adobe Illustrator 19.0.0, SVG Export Plug-In . SVG Version: 6.00 Build 0)  -->
<svg version="1.1" id="Layer_1" xmlns="http://www.w3.org/2000/svg" xmlns:xlink="http://www.w3.org/1999/xlink" x="0px" y="0px"
	 viewBox="0 0 489.29 489.29" style="enable-background:new 0 0 489.29 489.29;" xml:space="preserve">
<g id="XMLID_320_">
	<g id="XMLID_688_">
		<rect x="328.742" y="220.133" style="fill:#ED6D64;" width="45.871" height="44.657"/>
	</g>
	<g id="XMLID_698_">
		<rect x="382.258" y="220.133" style="fill:#E9483D;" width="45.871" height="44.657"/>
	</g>
	<g id="XMLID_569_">
		<g id="XMLID_647_">
			<path style="fill:#F7931E;" d="M244.553,135.307h-69.685V77.422c0-19.506,21.16-38.59,40.666-38.59h55.808v69.685
				C271.342,123.313,259.348,135.307,244.553,135.307z"/>
		</g>
		<g id="XMLID_646_">
			<path style="fill:#FBB03B;" d="M105.456,135.307h69.685V77.422c0-19.506-21.16-38.59-40.667-38.59H78.666v69.685
				C78.666,123.313,90.66,135.307,105.456,135.307z"/>
		</g>
		<g id="XMLID_644_">
			<polygon style="fill:#FFFFFF;" points="98.901,128.875 78.666,105.757 78.666,47.088 98.901,47.088 			"/>
		</g>
		<g id="XMLID_643_">
			<rect x="26.94" y="199.623" style="fill:#E9483D;" width="295.856" height="244.402"/>
		</g>
		<g id="XMLID_632_">
			<rect x="155.573" y="51.696" style="fill:#F7931E;" width="12.863" height="80.18"/>
		</g>
		<g id="XMLID_603_">
			<rect x="26.94" y="199.623" style="fill:#ED6D64;" width="83.611" height="244.402"/>
		</g>
		<g id="XMLID_602_">
			<rect x="136.278" y="199.623" style="fill:#F7931E;" width="77.18" height="244.402"/>
		</g>
		<g id="XMLID_601_">
			<rect x="7.645" y="135.307" style="fill:#E9483D;" width="334.445" height="64.316"/>
		</g>
		<g id="XMLID_600_">
			<rect x="123.415" y="135.307" style="fill:#F7931E;" width="102.906" height="64.316"/>
		</g>
		<g id="XMLID_599_">
			<rect x="7.645" y="135.307" style="fill:#ED6D64;" width="90.043" height="64.316"/>
		</g>
		<g id="XMLID_598_">
			<rect x="123.415" y="135.307" style="fill:#FBB03B;" width="57.885" height="64.316"/>
		</g>
		<g id="XMLID_571_">
			<rect x="12.863" y="135.109" style="fill:#FFFFFF;" width="19.29" height="64.515"/>
		</g>
		<g id="XMLID_570_">
			<polygon style="fill:#FFFFFF;" points="52.737,443.594 32.158,443.594 32.158,206.055 52.666,206.055 			"/>
		</g>
		<g id="XMLID_597_">
			<rect x="136.278" y="206.055" style="fill:#FBB03B;" width="51.453" height="237.971"/>
		</g>
		<g id="XMLID_595_">
			<polygon style="fill:#F7931E;" points="168.436,341.12 104.12,341.12 104.12,231.782 136.278,206.055 168.436,231.782 			"/>
		</g>
		<path style="fill:#1D1D1B;" d="M349.735,127.662h-79.208c5.632-6.964,9.015-15.817,9.015-25.45V37.619h-71.808
			c-10.833,0-21.018,4.221-28.676,11.883c-1.541,1.542-2.936,3.191-4.191,4.922c-1.256-1.731-2.65-3.38-4.192-4.922
			c-7.658-7.662-17.842-11.883-28.676-11.883H70.193v64.593c0,9.633,3.383,18.487,9.015,25.45H0v79.607h19.295v244.402H330.44
			V207.269h19.295L349.735,127.662L349.735,127.662z M111.765,333.474v-98.018l24.513-19.61l24.513,19.61v98.018H111.765z
			 M176.081,348.765V228.107l-26.047-20.838h55.779V436.38h-61.89v-87.615H176.081z M131.06,191.978v-49.025h87.616v49.025H131.06z
			 M189.874,60.311c4.77-4.773,11.113-7.401,17.861-7.401h56.518v49.302c0,13.924-11.328,25.252-25.252,25.252h-56.486l0.029-49.278
			c0-0.421-0.018-0.839-0.03-1.258C182.812,70.649,185.399,64.788,189.874,60.311z M85.483,52.91h56.518
			c6.747,0,13.091,2.628,17.861,7.401c4.475,4.477,7.062,10.338,7.361,16.616c-0.012,0.419-0.03,0.837-0.03,1.258l0.029,49.278
			h-56.486c-13.924,0-25.252-11.328-25.252-25.252L85.483,52.91L85.483,52.91z M15.29,191.978v-49.025h100.48v49.025H19.295H15.29z
			 M34.585,207.269h87.937l-26.047,20.838v120.658h32.158v87.615H34.585V207.269z M315.15,436.38h-94.048V207.269h94.048V436.38z
			 M334.445,191.978h-4.005h-96.475v-49.025h100.48V191.978z"/>
		<g id="XMLID_573_">
			<rect x="123.415" y="307.748" style="fill:#1D1D1B;" width="25.727" height="15.291"/>
		</g>
	</g>
	<g id="XMLID_670_">
		<rect x="275.226" y="268.187" style="fill:#F7931E;" width="206.419" height="45.871"/>
	</g>
	<g id="XMLID_671_">
		<rect x="275.226" y="268.187" style="fill:#FBB03B;" width="152.903" height="45.871"/>
	</g>
	<g id="XMLID_672_">
		<rect x="290.516" y="314.058" style="fill:#F7931E;" width="175.839" height="122.323"/>
	</g>
	<g id="XMLID_689_">
		<rect x="277.871" y="268.187" style="fill:#FFFFFF;" width="20.29" height="44.241"/>
	</g>
	<g id="XMLID_680_">
		<rect x="290.516" y="314.058" style="fill:#FBB03B;" width="129.968" height="122.323"/>
	</g>
	<g id="XMLID_685_">
		<rect x="344.032" y="268.187" style="fill:#E9483D;" width="61.161" height="45.871"/>
	</g>
	<g id="XMLID_692_">
		<rect x="294.161" y="312.428" style="fill:#FFFFFF;" width="19.29" height="131.598"/>
	</g>
	<g id="XMLID_330_">
		<rect x="344.032" y="268.187" style="fill:#ED6D64;" width="30.581" height="45.871"/>
	</g>
	<g id="XMLID_684_">
		<rect x="359.322" y="314.058" style="fill:#E9483D;" width="30.581" height="129.968"/>
	</g>
	<g id="XMLID_331_">
		<rect x="359.322" y="314.058" style="fill:#ED6D64;" width="15.29" height="129.968"/>
	</g>
	<g id="XMLID_683_">
		<path style="fill:#1D1D1B;" d="M397.548,451.671h-45.871V306.413h45.871V451.671z M366.967,436.38h15.291V321.704h-15.291
			L366.967,436.38L366.967,436.38z"/>
	</g>
	<path style="fill:#1D1D1B;" d="M489.29,260.541h-55.849c2.01-3.583,3.161-7.71,3.161-12.102V211.66h-40.366
		c-6.074,0-11.811,2.172-16.337,6.14c-4.525-3.968-10.262-6.14-16.337-6.14h-40.365v36.779c0,4.393,1.152,8.519,3.161,12.102
		h-58.779v61.162h15.291v129.968H474V321.704h15.29V260.541z M351.677,306.413v-30.58h45.871v30.58H351.677z M396.237,228.607
		h23.419v19.832c0,4.344-3.534,7.878-7.878,7.878h-23.4l0.012-19.817c0-0.139-0.008-0.276-0.01-0.415
		c0.097-1.953,0.894-3.776,2.286-5.169C392.153,229.427,394.132,228.607,396.237,228.607z M340.145,228.607h23.418
		c2.105,0,4.084,0.82,5.572,2.309c1.392,1.393,2.189,3.217,2.286,5.169c-0.002,0.138-0.01,0.276-0.01,0.415l0.011,19.817h-23.4
		c-4.344,0-7.878-3.534-7.878-7.878v-19.832H340.145z M282.871,306.413v-30.58h53.517v30.58H282.871L282.871,306.413z
		 M458.71,436.38H298.161V321.704H458.71V436.38z M474,306.413L474,306.413h-61.162v-30.58H474V306.413z"/>
</g>
<g>
</g>
<g>
</g>
<g>
</g>
<g>
</g>
<g>
</g>
<g>
</g>
<g>
</g>
<g>
</g>
<g>
</g>
<g>
</g>
<g>
</g>
<g>
</g>
<g>
</g>
<g>
</g>
<g>
</g>
</svg>
